<svg width="347" height="419" viewBox="0 0 347 419" fill="none" xmlns="http://www.w3.org/2000/svg">
<path d="M173.23 0.0216645C173.938 0.0159432 174.647 0.010222 175.377 0.00432734C188.961 -0.0798296 202.437 1.05227 215.645 4.38685C216.756 4.66295 216.756 4.66295 217.889 4.94463C235.841 9.56699 253.118 17.1811 268.438 27.6528C268.878 27.9526 269.318 28.2524 269.771 28.5613C285.029 39.0508 299.536 51.8051 310.853 66.5345C311.156 66.9228 311.459 67.3111 311.77 67.7112C328.587 89.3874 339.218 115.17 343.922 142.138C344.039 142.782 344.156 143.427 344.276 144.092C351.804 187.373 341.544 234.179 316.604 270.303C312.355 276.267 307.591 281.742 302.594 287.083C301.013 288.783 299.476 290.507 297.958 292.264C297.568 292.709 297.178 293.155 296.776 293.614C295.919 294.597 295.073 295.59 294.229 296.584C292.881 297.664 292.881 297.664 291.173 297.889C288.777 297.603 288.125 296.899 286.501 295.144C285.769 294.364 285.769 294.364 285.024 293.569C282.828 291.112 280.637 288.655 278.503 286.144C280.835 283.354 283.228 280.661 285.731 278.023C294.343 268.889 301.703 258.854 307.978 247.982C308.275 247.472 308.572 246.963 308.878 246.438C316.942 232.436 322.266 217.052 325.231 201.18C325.348 200.556 325.464 199.932 325.585 199.289C332.595 159.717 323.196 117.432 300.442 84.4301C295.742 77.7834 290.625 71.6668 284.973 65.8144C284.468 65.2803 284.468 65.2803 283.952 64.7354C278.495 58.9735 272.673 53.9505 266.282 49.2537C265.845 48.9319 265.408 48.6101 264.957 48.2785C242.267 31.7471 217.275 21.9064 189.36 19.0125C188.454 18.9178 187.547 18.8231 186.614 18.7256C143.936 15.0561 103.836 28.7861 71.1463 56.0608C55.7958 69.1009 43.3524 84.6308 34.0788 102.536C33.6451 103.366 33.2114 104.196 32.7646 105.05C15.8469 139.321 13.1824 182.893 24.7332 219.181C33.9531 245.801 49.1797 266.278 69.0126 285.825C69.5362 286.343 70.0598 286.861 70.5992 287.395C71.2905 288.075 71.2905 288.075 71.9958 288.769C73.2593 290.089 74.4293 291.42 75.6068 292.814C79.7471 297.56 84.2622 301.951 88.7106 306.405C89.7303 307.428 90.7498 308.452 91.7693 309.476C94.5257 312.243 97.2845 315.008 100.044 317.772C101.769 319.501 103.494 321.23 105.219 322.959C111.241 328.997 117.264 335.033 123.289 341.067C128.9 346.686 134.506 352.309 140.111 357.934C144.931 362.77 149.753 367.604 154.577 372.436C157.456 375.318 160.333 378.202 163.207 381.089C165.909 383.802 168.614 386.511 171.322 389.218C172.313 390.21 173.303 391.204 174.292 392.199C175.645 393.559 177.003 394.916 178.361 396.271C178.749 396.663 179.136 397.054 179.536 397.458C182.144 400.047 184.889 402.153 187.922 404.229C186.912 405.413 185.901 406.597 184.887 407.778C184.038 408.768 183.194 409.762 182.354 410.76C181.938 411.248 181.521 411.736 181.093 412.239C180.526 412.91 180.526 412.91 179.947 413.595C178.178 415.447 176.238 416.998 174.263 418.629C173.92 418.285 173.577 417.941 173.224 417.586C164.861 409.194 156.496 400.804 148.129 392.416C144.082 388.36 140.037 384.303 135.993 380.244C132.466 376.704 128.938 373.166 125.408 369.63C123.541 367.759 121.675 365.887 119.81 364.014C117.723 361.918 115.633 359.825 113.543 357.732C112.627 356.81 112.627 356.81 111.691 355.869C108.638 352.816 105.53 349.887 102.26 347.069C100.201 345.261 98.2691 343.336 96.3374 341.394C95.7067 340.764 95.7067 340.764 95.0633 340.121C93.6932 338.752 92.3258 337.38 90.9585 336.009C89.9957 335.045 89.0328 334.081 88.0698 333.117C86.0596 331.105 84.0507 329.091 82.0427 327.077C79.4816 324.508 76.9172 321.942 74.3518 319.376C72.3651 317.389 70.3802 315.4 68.3958 313.411C67.4514 312.465 66.5065 311.519 65.561 310.573C56.6512 301.662 56.6512 301.662 53.03 297.376C51.2539 295.286 49.3479 293.315 47.4682 291.319C43.5308 287.099 39.8018 282.765 36.2355 278.223C35.661 277.5 35.0864 276.777 34.4944 276.032C17.0682 253.898 7.51243 230.253 2.44748 202.62C2.3277 202.011 2.20792 201.401 2.08452 200.773C0.0929886 190.393 0.0662951 179.941 0.0212063 169.409C0.015494 168.709 0.00978181 168.009 0.00389647 167.288C-0.0749031 154.705 1.03291 142.354 4.10992 130.122C4.26259 129.503 4.41527 128.884 4.57257 128.246C10.4428 105.067 21.3975 84.4682 36.2355 65.8144C36.7749 65.1248 37.3142 64.4352 37.8699 63.7247C47.3333 52.0531 58.4586 40.6478 70.7424 31.973C71.1795 31.655 71.6166 31.337 72.0669 31.0093C92.0983 16.436 114.771 7.10672 139.037 2.45177C139.645 2.3318 140.253 2.21184 140.879 2.08824C151.586 0.0817328 162.374 0.0675377 173.23 0.0216645Z" fill="#94C2EB"/>
<path d="M168.535 53.092C200.61 52.4242 231.476 64.4795 254.825 86.4439C261.48 92.8552 267.475 99.4362 272.486 107.209C272.797 107.69 273.109 108.172 273.43 108.668C282.506 122.905 288.792 139.326 290.504 156.195C290.583 156.952 290.662 157.709 290.743 158.489C293.553 189.688 285.175 221.986 265.162 246.392C261.587 250.653 257.771 254.648 253.747 258.491C248.703 256.348 244.697 251.279 241.495 246.965C242.496 243.918 243.896 242.17 246.134 239.896C264.628 219.999 273.297 193.945 272.686 167.058C271.85 144.887 262.975 124.072 248.702 107.209C248.214 106.624 247.726 106.039 247.224 105.436C231.082 86.7354 206.254 74.7048 181.675 72.6299C157.168 71.2017 132.304 77.09 112.485 92.0805C111.507 92.8201 111.507 92.8201 110.509 93.5747C87.987 111.335 76.4437 135.578 72.5104 163.627C72.3137 165.477 72.1913 167.304 72.1247 169.162C72.0959 169.863 72.0671 170.563 72.0374 171.284C71.4299 200.357 84.1743 224.17 103.797 244.683C107.386 248.393 111.038 252.04 114.721 255.657C115.202 256.132 115.683 256.606 116.179 257.095C116.597 257.505 117.015 257.914 117.446 258.336C118.692 259.64 119.853 260.964 121.02 262.336C125.234 267.176 129.857 271.636 134.397 276.166C135.41 277.179 136.423 278.193 137.436 279.206C139.552 281.322 141.67 283.437 143.788 285.551C146.491 288.248 149.19 290.949 151.888 293.651C153.978 295.741 156.069 297.831 158.16 299.919C159.156 300.914 160.151 301.909 161.145 302.905C167.586 309.363 167.586 309.363 174.363 315.46C178.45 319.117 182.251 323.096 186.12 326.979C187.105 327.965 188.09 328.95 189.075 329.936C191.654 332.517 194.232 335.1 196.809 337.684C199.429 340.311 202.052 342.935 204.674 345.56C208.909 349.799 213.142 354.039 217.374 358.281C219.646 360.559 221.921 362.835 224.197 365.109C222.546 366.881 220.894 368.651 219.242 370.422C218.538 371.177 218.538 371.177 217.821 371.947C217.37 372.43 216.919 372.913 216.455 373.411C216.04 373.856 215.625 374.301 215.197 374.76C214.368 375.639 213.521 376.501 212.666 377.356C209.21 377.26 207.088 375.364 204.738 373.034C203.96 372.158 203.192 371.274 202.432 370.383C199.736 367.279 196.887 364.36 193.972 361.462C193.493 360.981 193.014 360.499 192.521 360.003C192.042 359.525 191.563 359.048 191.069 358.555C190.648 358.136 190.228 357.716 189.794 357.283C188.453 356.019 187.089 354.827 185.688 353.632C181.688 350.138 177.962 346.371 174.212 342.615C173.403 341.808 172.594 341 171.785 340.193C169.602 338.014 167.421 335.833 165.24 333.651C162.95 331.36 160.657 329.07 158.365 326.78C154.517 322.935 150.671 319.089 146.826 315.242C142.391 310.806 137.954 306.371 133.515 301.939C129.692 298.121 125.871 294.302 122.051 290.481C119.774 288.205 117.497 285.929 115.219 283.654C113.076 281.515 110.936 279.373 108.796 277.231C108.014 276.448 107.232 275.667 106.449 274.886C102.658 271.103 98.9191 267.306 95.444 263.227C94.1939 261.776 92.8535 260.444 91.4659 259.124C76.0955 244.278 63.8004 227.229 57.485 206.623C57.319 206.086 57.153 205.549 56.9819 204.996C54.0624 194.89 52.9832 184.905 53.0705 174.43C53.0727 173.868 53.0749 173.305 53.0772 172.725C53.1308 163.372 53.8686 154.465 56.2688 145.39C56.4309 144.77 56.593 144.151 56.76 143.513C65.1114 112.417 82.4589 86.5342 110.571 70.1788C128.276 60.176 148.118 53.7476 168.535 53.092Z" fill="#94C2EB"/>
<path d="M213.456 122.653C214.206 123.237 214.206 123.237 214.972 123.833C226.394 133.243 234.954 148.965 236.541 163.653C237.918 182.211 233.111 199.989 221.186 214.582C219.841 216.1 218.478 217.586 217.063 219.038C214.436 218.626 213.251 217.649 211.427 215.756C210.931 215.244 210.435 214.731 209.925 214.203C207.682 211.784 205.497 209.319 203.356 206.81C204.8 204.619 206.259 202.47 207.817 200.356C215.454 189.917 218.883 178.538 217.378 165.586C215.331 154.338 209.768 142.84 200.298 136.016C189.295 128.502 177.513 126.003 164.266 127.915C155.792 129.654 148.523 133.596 142.036 139.197C141.537 139.625 141.039 140.053 140.525 140.495C131.518 148.819 127.655 160.274 126.928 172.214C126.602 183.751 131.464 195.188 139.269 203.59C142.076 206.511 144.962 209.352 147.849 212.194C148.912 213.25 149.975 214.307 151.037 215.365C153.254 217.57 155.475 219.77 157.7 221.966C160.541 224.769 163.373 227.58 166.202 230.394C168.919 233.096 171.64 235.795 174.361 238.493C174.873 239.001 175.386 239.509 175.913 240.033C177.376 241.483 178.842 242.931 180.308 244.379C180.732 244.799 181.155 245.219 181.591 245.652C183.718 247.746 185.886 249.758 188.149 251.705C191.244 254.379 194.135 257.227 197.02 260.124C197.581 260.685 198.143 261.246 198.721 261.823C199.931 263.032 201.14 264.242 202.348 265.452C204.263 267.371 206.181 269.288 208.099 271.204C212.517 275.618 216.93 280.034 221.344 284.451C225.717 288.826 230.091 293.2 234.468 297.572C236.35 299.454 238.231 301.338 240.111 303.222C241.274 304.384 242.436 305.545 243.599 306.706C244.374 307.485 244.374 307.485 245.164 308.279C248.423 311.528 251.8 314.59 255.298 317.582C256.502 318.644 257.704 319.707 258.905 320.773C259.731 321.506 259.731 321.506 260.573 322.254C260.975 322.611 261.377 322.968 261.791 323.336C260.688 325.88 259.163 327.649 257.282 329.675C254.636 332.551 252.058 335.464 249.527 338.441C247.352 337.47 245.845 336.387 244.169 334.704C243.713 334.248 243.257 333.792 242.787 333.322C242.318 332.845 241.849 332.369 241.366 331.878C240.905 331.418 240.444 330.958 239.969 330.484C236.356 326.848 236.356 326.848 234.935 325.166C230.375 319.786 225.283 314.91 220.277 309.949C219.211 308.89 218.145 307.831 217.079 306.772C214.793 304.499 212.505 302.227 210.216 299.955C206.593 296.36 202.974 292.761 199.356 289.161C189.069 278.929 178.779 268.699 168.481 258.476C162.787 252.825 157.098 247.169 151.412 241.509C147.821 237.933 144.224 234.362 140.624 230.795C138.381 228.57 136.143 226.341 133.905 224.11C132.872 223.081 131.836 222.054 130.799 221.029C116.709 207.104 108.674 192.714 108.49 172.644C108.625 155.055 114.921 139.391 127.142 126.626C150.987 103.94 187.706 102.448 213.456 122.653Z" fill="#94C2EB"/>
</svg>
