<svg width="500" height="500" viewBox="0 0 500 500" fill="none" xmlns="http://www.w3.org/2000/svg">
<path d="M0 250C0 44.125 44.125 0 250 0C455.875 0 500 44.125 500 250C500 455.875 455.875 500 250 500C44.125 500 0 455.875 0 250Z" fill="#0A1B49"/>
<path d="M252.516 38.3747C266.217 38.2898 279.87 39.4309 293.286 42.818H293.285L295.524 43.3747L295.54 43.3786C313.701 48.0549 331.194 55.7607 346.717 66.3708H346.718L348.05 67.2799L348.056 67.2838C363.438 77.858 378.11 90.7461 389.583 105.675L390.5 106.852L390.503 106.856C407.537 128.814 418.287 154.902 423.043 182.152L423.396 184.106L423.398 184.12C431.016 227.917 420.64 275.254 395.402 311.81L395.394 311.822L395.385 311.835C391.065 317.899 386.235 323.443 381.21 328.815L381.211 328.816C379.649 330.495 378.128 332.201 376.624 333.942L376.615 333.953C376.226 334.397 375.836 334.84 375.435 335.298L375.436 335.298C374.588 336.272 373.748 337.256 372.906 338.249L372.781 338.395L372.632 338.515C372.045 338.985 371.465 339.472 370.773 339.767C370.08 340.063 369.33 340.145 368.587 340.243L368.338 340.276L368.089 340.246C366.709 340.081 365.62 339.77 364.612 339.117C363.692 338.521 362.944 337.694 362.185 336.874V336.873C361.463 336.103 361.459 336.1 360.717 335.308L360.701 335.291L360.684 335.273C358.489 332.818 356.283 330.342 354.131 327.809L353.04 326.525L354.121 325.232C356.478 322.412 358.9 319.686 361.432 317.017C369.93 308.004 377.197 298.097 383.397 287.353L383.402 287.345C383.699 286.836 383.996 286.326 384.302 285.8C392.237 272.02 397.489 256.857 400.417 241.183H400.418C400.534 240.559 400.65 239.935 400.77 239.293C407.68 200.258 398.407 158.522 375.962 125.956L375.087 124.732C370.69 118.643 365.923 112.997 360.686 107.575L360.679 107.567L360.673 107.56C360.167 107.026 360.167 107.026 359.651 106.481V106.48C354.286 100.816 348.557 95.8708 342.25 91.236L342.248 91.235C341.813 90.915 341.379 90.5948 340.931 90.2653C318.517 73.9349 293.858 64.2291 266.306 61.3727H266.304C265.399 61.2781 264.493 61.1831 263.56 61.0856C221.456 57.4745 181.884 71.0147 149.58 97.9674C134.43 110.84 122.156 126.162 113.007 143.827L113.004 143.833C112.573 144.657 112.141 145.482 111.697 146.331C95.0334 180.105 92.3946 223.114 103.781 258.915C112.587 284.329 126.95 304.1 145.736 322.95L147.569 324.771L147.572 324.774C148.094 325.291 148.616 325.808 149.154 326.34L150.551 327.714L150.572 327.735L150.593 327.756C151.887 329.109 153.079 330.465 154.266 331.87L155.036 332.744C157.874 335.933 160.875 338.97 163.929 342.021L167.278 345.362L167.279 345.364C168.299 346.388 169.319 347.411 170.339 348.435L178.611 356.73C180.337 358.459 182.063 360.188 183.788 361.918C189.809 367.955 195.832 373.991 201.857 380.025C207.468 385.644 213.075 391.268 218.679 396.893C223.498 401.729 228.32 406.562 233.144 411.393C236.023 414.276 238.901 417.161 241.776 420.048L249.887 428.174L249.888 428.175C250.881 429.169 251.873 430.163 252.863 431.159C254.213 432.517 255.568 433.871 256.926 435.225L256.935 435.235C257.322 435.626 257.711 436.019 258.11 436.423H258.109C260.597 438.89 263.233 440.916 266.204 442.949L268.04 444.205L266.596 445.897C265.586 447.082 264.573 448.267 263.556 449.45C262.712 450.436 261.872 451.426 261.036 452.419L261.028 452.427C260.612 452.916 260.196 453.404 259.767 453.907C259.205 454.572 259.204 454.574 258.627 455.256L258.588 455.303L258.546 455.347C256.675 457.305 254.625 458.943 252.689 460.542L251.285 461.702L249.999 460.412L248.96 459.369C240.597 450.977 232.232 442.587 223.865 434.199C219.819 430.142 215.773 426.085 211.728 422.026C208.202 418.487 204.674 414.949 201.145 411.413C199.278 409.542 197.41 407.669 195.545 405.796C193.459 403.701 191.37 401.608 189.28 399.515L189.277 399.512C188.36 398.59 188.36 398.591 187.425 397.65V397.649C184.4 394.625 181.33 391.732 178.106 388.954L178.093 388.942C175.978 387.086 174.004 385.118 172.076 383.179C171.446 382.55 171.446 382.549 170.802 381.907H170.802C169.43 380.536 168.061 379.163 166.694 377.792V377.791C165.732 376.828 164.77 375.865 163.807 374.902C161.797 372.889 159.786 370.875 157.778 368.86C155.218 366.292 152.655 363.727 150.09 361.162V361.161C148.102 359.173 146.116 357.184 144.132 355.194V355.193C143.188 354.248 142.244 353.303 141.3 352.359L141.299 352.358C132.386 343.444 132.334 343.393 128.654 339.038V339.037C126.922 336.999 125.068 335.083 123.164 333.061L123.158 333.054C119.184 328.795 115.418 324.418 111.814 319.829V319.828C111.242 319.108 110.67 318.389 110.081 317.647L110.075 317.64C92.4215 295.217 82.7524 271.265 77.6375 243.377L77.2742 241.53L77.2722 241.521C75.2402 230.93 75.2185 220.291 75.1736 209.796C75.1679 209.096 75.1619 208.396 75.156 207.675V207.672C75.0764 194.963 76.1945 182.438 79.322 170.005C79.4739 169.389 79.6265 168.773 79.783 168.138L79.7859 168.126C85.735 144.636 96.8325 123.784 111.822 104.94C112.358 104.255 112.895 103.569 113.447 102.863L113.469 102.836C122.998 91.0824 134.246 79.5381 146.718 70.7262C147.155 70.4082 147.592 70.091 148.043 69.7633V69.7624C168.332 55.0015 191.283 45.5635 215.812 40.8581C216.416 40.7388 217.021 40.6196 217.643 40.4967L217.653 40.4948L217.662 40.4928C228.576 38.4475 239.549 38.4389 250.366 38.3932V38.3922C251.074 38.3865 251.783 38.3806 252.512 38.3747H252.516Z" fill="#94C2EB" stroke="#94C2EB" stroke-width="4"/>
<path d="M245.646 91.4628C277.742 90.7945 308.641 102.66 332.229 124.319L333.348 125.358L333.365 125.374C340.077 131.84 346.19 138.542 351.316 146.493L352.262 147.952L352.269 147.964L353.125 149.326C361.884 163.47 367.95 179.677 369.645 196.358H369.646L369.885 198.652L369.886 198.666L369.887 198.681C372.738 230.334 364.247 263.169 343.861 288.03L343.854 288.039L343.847 288.048C340.216 292.374 336.348 296.424 332.28 300.309L331.328 301.218L330.117 300.703C324.497 298.315 320.194 292.775 317.041 288.527L316.423 287.695L316.747 286.711C317.881 283.262 319.507 281.256 321.835 278.89C339.918 259.426 348.433 233.914 347.839 207.504L347.795 206.488C346.749 185.189 338.124 165.172 324.327 148.872L324.317 148.86C323.83 148.275 323.342 147.69 322.84 147.088V147.087C307.066 128.828 282.757 117.035 258.688 114.995C234.57 113.594 210.209 119.399 190.844 134.047C189.865 134.786 189.865 134.786 188.867 135.541C166.86 152.91 155.527 176.62 151.647 204.243C151.458 206.03 151.34 207.798 151.275 209.604V209.615C151.247 210.302 151.218 210.989 151.188 211.696C150.595 240.08 163.01 263.405 182.387 283.663L183.729 285.045C186.87 288.264 190.059 291.442 193.274 294.6L193.277 294.604C193.757 295.077 194.236 295.55 194.729 296.037H194.73C195.148 296.446 195.566 296.856 195.997 297.278L196.021 297.302L196.043 297.325C197.322 298.663 198.507 300.014 199.681 301.393L200.464 302.284C203.353 305.533 206.42 308.619 209.541 311.722L212.962 315.121L212.963 315.123C213.976 316.136 214.99 317.149 216.003 318.163L222.353 324.506C225.056 327.204 227.756 329.906 230.455 332.607L236.726 338.875L239.712 341.862L239.714 341.863C246.127 348.294 246.102 348.271 252.849 354.34C256.991 358.047 260.858 362.094 264.687 365.936L267.642 368.892L275.377 376.642L283.241 384.517C287.476 388.757 291.709 392.997 295.941 397.239C298.213 399.516 300.487 401.792 302.763 404.065L304.13 405.431L302.812 406.844C301.161 408.615 299.508 410.385 297.856 412.155L297.857 412.156C297.154 412.911 297.153 412.911 296.436 413.682L296.435 413.683C295.984 414.165 295.533 414.648 295.069 415.145C294.654 415.59 294.239 416.036 293.812 416.494L293.804 416.503C292.956 417.401 292.094 418.279 291.231 419.142L290.623 419.75L289.763 419.725C285.453 419.606 282.832 417.155 280.481 414.825L280.437 414.78L280.395 414.733C279.611 413.851 278.838 412.961 278.074 412.065L277.073 410.93C274.722 408.297 272.255 405.777 269.714 403.252L269.706 403.243C269.229 402.763 268.751 402.283 268.26 401.789C267.781 401.311 267.302 400.834 266.809 400.342C266.397 399.931 265.985 399.52 265.562 399.098C264.259 397.871 262.928 396.706 261.542 395.524L261.533 395.517L261.523 395.509C257.463 391.961 253.686 388.142 249.951 384.401C249.142 383.594 248.333 382.787 247.524 381.979C245.34 379.8 243.158 377.617 240.978 375.435C238.688 373.145 236.396 370.855 234.104 368.565C230.256 364.72 226.409 360.874 222.563 357.027C218.129 352.591 213.692 348.157 209.254 343.725C205.431 339.906 201.608 336.087 197.788 332.267C195.512 329.99 193.236 327.715 190.958 325.44C188.815 323.3 186.673 321.158 184.533 319.015C183.752 318.233 182.97 317.453 182.188 316.673V316.672C178.395 312.887 174.605 309.041 171.073 304.895V304.894C169.889 303.521 168.606 302.245 167.239 300.944L167.229 300.934C151.693 285.928 139.167 268.601 132.725 247.58V247.579C132.559 247.044 132.394 246.508 132.224 245.957L132.218 245.939L132.213 245.922C129.23 235.596 128.134 225.413 128.223 214.784C128.225 214.224 128.227 213.664 128.229 213.088V213.085C128.284 203.634 129.029 194.545 131.487 185.249C131.649 184.631 131.811 184.013 131.978 183.377L131.98 183.365C140.445 151.849 158.075 125.485 186.717 108.821L186.728 108.814L186.739 108.809C204.675 98.6754 224.829 92.1315 245.623 91.4638H245.635L245.646 91.4628Z" fill="#94C2EB" stroke="#94C2EB" stroke-width="4"/>
<path d="M202.916 165.547C227.487 142.171 265.315 140.639 291.836 161.446L293.353 162.625L293.396 162.66C305.031 172.246 313.761 188.091 315.599 203.095L315.682 203.809L315.688 203.875C317.098 222.885 312.171 241.185 299.886 256.218L299.862 256.249L299.835 256.279C298.476 257.814 297.091 259.324 295.648 260.805L294.926 261.545L293.905 261.385C292.377 261.145 291.158 260.72 290.036 260.02C288.958 259.347 288.061 258.471 287.139 257.515V257.514C286.644 257.002 286.149 256.49 285.639 255.963L285.624 255.948L285.611 255.933C283.347 253.492 281.144 251.007 278.987 248.48L278.011 247.336L278.838 246.08C280.292 243.875 281.772 241.694 283.359 239.54C290.71 229.489 293.972 218.631 292.551 206.255C290.557 195.368 285.198 184.45 276.31 178.03C265.761 170.83 254.511 168.429 241.759 170.258C233.695 171.924 226.748 175.682 220.494 181.081L220.491 181.084C220.003 181.504 219.514 181.922 219.012 182.354C210.523 190.212 206.79 201.088 206.078 212.669C205.778 223.6 210.391 234.519 217.864 242.574L218.911 243.658C220.664 245.458 222.445 247.234 224.241 249.008L226.405 251.139L226.411 251.146C227.475 252.202 228.538 253.26 229.6 254.318L232.925 257.618C234.035 258.718 235.145 259.816 236.257 260.913C239.1 263.719 241.934 266.532 244.764 269.347C247.48 272.048 250.2 274.746 252.921 277.444H252.922C253.433 277.951 253.947 278.461 254.474 278.984H254.473L258.865 283.325L258.869 283.329C259.291 283.748 259.713 284.166 260.147 284.597L260.936 285.368C262.517 286.903 264.122 288.391 265.775 289.839L266.606 290.56L266.609 290.563C269.763 293.288 272.698 296.179 275.585 299.079L277.286 300.78H277.287C278.498 301.989 279.707 303.2 280.915 304.41C282.83 306.328 284.747 308.244 286.665 310.16C291.083 314.574 295.498 318.991 299.911 323.407L313.033 336.528V336.529C314.916 338.411 316.797 340.295 318.677 342.178L322.164 345.662L322.168 345.666C322.942 346.444 322.942 346.443 323.728 347.233C326.541 350.037 329.449 352.706 332.455 355.317L333.75 356.432L333.762 356.443L333.773 356.452C334.978 357.516 336.183 358.581 337.385 359.649L339.053 361.129L339.054 361.13C339.455 361.487 339.857 361.844 340.271 362.211L341.354 363.173L340.778 364.502C339.531 367.379 337.803 369.357 335.9 371.406C333.274 374.262 330.714 377.154 328.202 380.108L327.232 381.249L325.863 380.638C323.445 379.558 321.739 378.327 319.907 376.489V376.489C319.451 376.033 318.995 375.577 318.525 375.107L318.52 375.101L318.514 375.096C318.049 374.623 317.584 374.151 317.105 373.664L315.708 372.27L315.702 372.265C312.088 368.628 312.037 368.577 310.559 366.826V366.825C306.071 361.532 301.062 356.736 296.021 351.74L296.019 351.739L292.822 348.561C290.535 346.288 288.248 344.016 285.959 341.745C282.336 338.149 278.715 334.55 275.097 330.95V330.949C264.81 320.717 254.521 310.488 244.224 300.267C241.377 297.44 238.531 294.613 235.686 291.784L227.154 283.297C223.563 279.723 219.968 276.152 216.368 272.586H216.367C214.123 270.36 211.884 268.129 209.647 265.899L206.545 262.823C192.188 248.634 183.832 233.766 183.642 213.032V212.999C183.781 194.904 190.273 178.75 202.85 165.614L202.882 165.579L202.916 165.547Z" fill="#94C2EB" stroke="#94C2EB" stroke-width="4"/>
</svg>
